<svg width="18" height="18" viewBox="0 0 18 18" fill="none" xmlns="http://www.w3.org/2000/svg">
<path d="M7.5 0H10.5C10.9375 0 11.2969 0.140625 11.5781 0.421875C11.8594 0.703125 12 1.0625 12 1.5V2.25H17.25V3.75H16.4297L14.9297 18H3.07031L1.57031 3.75H0.75V2.25H6V1.5C6 1.0625 6.14062 0.703125 6.42188 0.421875C6.70312 0.140625 7.0625 0 7.5 0ZM7.5 1.5V2.25H10.5V1.5H7.5ZM3.09375 3.75L4.42969 16.5H13.5703L14.9062 3.75H3.09375ZM6 6H7.5V14.25H6V6ZM8.25 6H9.75V14.25H8.25V6ZM10.5 6H12V14.25H10.5V6Z" fill="black"/>
</svg>
