<svg width="24" height="12" viewBox="0 0 24 12" fill="none" xmlns="http://www.w3.org/2000/svg">
<path d="M12 0C13.1719 0 14.3594 0.1875 15.5625 0.5625C16.5781 0.890625 17.5859 1.35156 18.5859 1.94531C19.3984 2.41406 20.1953 2.95312 20.9766 3.5625C21.5234 4 22.0391 4.46094 22.5234 4.94531L23.0625 5.50781L23.5078 6L23.0625 6.49219L22.5703 7.00781C22.1328 7.44531 21.6562 7.86719 21.1406 8.27344C20.4375 8.85156 19.7109 9.375 18.9609 9.84375C18.0234 10.4062 17.0859 10.8594 16.1484 11.2031C15.0391 11.625 13.9375 11.875 12.8438 11.9531C12.5938 11.9844 12.3125 12 12 12C11.6875 12 11.4062 11.9844 11.1562 11.9531C10.0625 11.875 8.96094 11.625 7.85156 11.2031C6.91406 10.8594 5.97656 10.4062 5.03906 9.84375C4.28906 9.375 3.5625 8.85156 2.85938 8.27344C2.34375 7.86719 1.86719 7.44531 1.42969 7.00781L0.9375 6.49219L0.492188 6L0.9375 5.50781L1.47656 4.94531C1.96094 4.46094 2.47656 4 3.02344 3.5625C3.80469 2.95312 4.60156 2.41406 5.41406 1.94531C6.41406 1.35156 7.42188 0.890625 8.4375 0.5625C9.64062 0.1875 10.8281 0 12 0ZM12 1.5C10.5312 1.5 9.01562 1.85938 7.45312 2.57812H7.47656C6.99219 3.39062 6.75 4.28125 6.75 5.25C6.75 6.14062 6.95312 6.96875 7.35938 7.73438C7.76562 8.5 8.32812 9.125 9.04688 9.60938C9.76562 10.0938 10.5547 10.3828 11.4141 10.4766C11.6797 10.4922 11.875 10.5 12 10.5L12.5859 10.4766C13.4453 10.3828 14.2344 10.0938 14.9531 9.60938C15.6719 9.125 16.2344 8.5 16.6406 7.73438C17.0469 6.96875 17.25 6.14062 17.25 5.25C17.25 4.28125 17 3.38281 16.5 2.55469C14.9531 1.85156 13.4531 1.5 12 1.5ZM12 3C12.625 3 13.1562 3.21875 13.5938 3.65625C14.0312 4.09375 14.25 4.625 14.25 5.25C14.25 5.875 14.0312 6.40625 13.5938 6.84375C13.1562 7.28125 12.625 7.5 12 7.5C11.375 7.5 10.8438 7.28125 10.4062 6.84375C9.96875 6.40625 9.75 5.875 9.75 5.25C9.75 4.625 9.96875 4.09375 10.4062 3.65625C10.8438 3.21875 11.375 3 12 3ZM5.4375 3.70312C4.39062 4.40625 3.46094 5.17188 2.64844 6C3.75781 7.125 4.96875 8.07031 6.28125 8.83594C5.59375 7.74219 5.25 6.54688 5.25 5.25C5.25 4.75 5.3125 4.23438 5.4375 3.70312ZM18.5625 3.70312C18.6875 4.23438 18.75 4.75 18.75 5.25C18.75 6.54688 18.4062 7.74219 17.7188 8.83594C19.0312 8.07031 20.2422 7.125 21.3516 6C20.5391 5.17188 19.6094 4.40625 18.5625 3.70312Z" fill="#C30E0E"/>
</svg>
