<svg width="40" height="28" viewBox="0 0 40 28" fill="none" xmlns="http://www.w3.org/2000/svg">
<g id="Group">
<g id="Clip path group">
<mask id="mask0_4698_66001" style="mask-type:luminance" maskUnits="userSpaceOnUse" x="0" y="0" width="40" height="28">
<g id="flagpackGbUkm3">
<path id="Vector" d="M0 0H40V28H0V0Z" fill="white"/>
</g>
</mask>
<g mask="url(#mask0_4698_66001)">
<g id="Group_2">
<path id="Vector_2" d="M0 0H40V28H0V0Z" fill="white"/>
<path id="Vector_3" fill-rule="evenodd" clip-rule="evenodd" d="M0 0V28H40V0H0Z" fill="black"/>
<g id="Mask group">
<mask id="mask1_4698_66001" style="mask-type:luminance" maskUnits="userSpaceOnUse" x="0" y="0" width="40" height="28">
<g id="Group_3">
<path id="Vector_4" fill-rule="evenodd" clip-rule="evenodd" d="M0 0V28H40V0H0Z" fill="white"/>
</g>
</mask>
<g mask="url(#mask1_4698_66001)">
<g id="Group_4">
<path id="Vector_5" d="M-4.45361 25.9992L4.34889 29.4747L40.1989 3.77769L44.8426 -1.38598L35.4301 -2.54681L20.8076 8.52602L9.03764 15.988L-4.45361 25.9992Z" fill="white"/>
<path id="Vector_6" d="M-3.25 28.434L1.23625 30.45L43.175 -1.86548H36.8787L-3.24875 28.4329L-3.25 28.434Z" fill="#272727"/>
<path id="Vector_7" d="M44.4535 25.9992L35.651 29.4747L-0.199023 3.77769L-4.84277 -1.38598L4.56973 -2.54681L19.1922 8.52602L30.9622 15.988L44.4535 25.9992Z" fill="white"/>
<path id="Vector_8" d="M44.1537 27.7469L39.6687 29.7629L21.8112 15.9262L16.5162 14.3815L-5.29004 -1.36847H1.00746L22.8 14.0082L28.5887 15.8609L44.1537 27.7469Z" fill="#272727"/>
<path id="Vector_9" fill-rule="evenodd" clip-rule="evenodd" d="M24.7227 -2.33331H15.2777V9.33335H-2.46484V18.6667H15.2777V30.3334H24.7227V18.6667H42.5352V9.33335H24.7227V-2.33331Z" fill="#272727"/>
<g id="Mask group_2">
<mask id="mask2_4698_66001" style="mask-type:luminance" maskUnits="userSpaceOnUse" x="-3" y="-3" width="46" height="34">
<g id="Group_5">
<path id="Vector_10" fill-rule="evenodd" clip-rule="evenodd" d="M24.7227 -2.33331H15.2777V9.33335H-2.46484V18.6667H15.2777V30.3334H24.7227V18.6667H42.5352V9.33335H24.7227V-2.33331Z" fill="white"/>
</g>
</mask>
<g mask="url(#mask2_4698_66001)">
<path id="Vector_11" d="M15.2777 -2.33329V-4.66663H12.7777V-2.33329H15.2777ZM24.7227 -2.33329H27.2227V-4.66663H24.7227V-2.33329ZM15.2777 9.33337V11.6667H17.7777V9.33337H15.2777ZM-2.46484 9.33337V7.00004H-4.96484V9.33337H-2.46484ZM-2.46484 18.6667H-4.96484V21H-2.46484V18.6667ZM15.2777 18.6667H17.7777V16.3334H15.2777V18.6667ZM15.2777 30.3334H12.7777V32.6667H15.2777V30.3334ZM24.7227 30.3334V32.6667H27.2227V30.3334H24.7227ZM24.7227 18.6667V16.3334H22.2227V18.6667H24.7227ZM42.5352 18.6667V21H45.0352V18.6667H42.5352ZM42.5352 9.33337H45.0352V7.00004H42.5352V9.33337ZM24.7227 9.33337H22.2227V11.6667H24.7227V9.33337ZM15.2777 4.1008e-05H24.7227V-4.66663H15.2777V4.1008e-05ZM17.7777 9.33337V-2.33329H12.7777V9.33337H17.7777ZM-2.46484 11.6667H15.2777V7.00004H-2.46484V11.6667ZM0.0351562 18.6667V9.33337H-4.96484V18.6667H0.0351562ZM15.2777 16.3334H-2.46484V21H15.2777V16.3334ZM17.7777 30.3334V18.6667H12.7777V30.3334H17.7777ZM24.7227 28H15.2777V32.6667H24.7227V28ZM22.2227 18.6667V30.3334H27.2227V18.6667H22.2227ZM42.5352 16.3334H24.7227V21H42.5352V16.3334ZM40.0352 9.33337V18.6667H45.0352V9.33337H40.0352ZM24.7227 11.6667H42.5352V7.00004H24.7227V11.6667ZM22.2227 -2.33329V9.33337H27.2227V-2.33329H22.2227Z" fill="white"/>
</g>
</g>
</g>
</g>
</g>
</g>
</g>
</g>
</g>
</svg>
