<svg width="40" height="40" viewBox="0 0 40 40" fill="none" xmlns="http://www.w3.org/2000/svg">
<g id="Linkedin">
<circle id="Ellipse 1254" cx="20" cy="20" r="19.5" fill="#FFFCF7" stroke="#272727"/>
<g id="linkedin-fill">
<path id="Vector" d="M14.9399 12C14.9397 12.5304 14.7287 13.039 14.3534 13.4139C13.9782 13.7888 13.4694 13.9993 12.9389 13.999C12.4085 13.9987 11.8999 13.7878 11.525 13.4125C11.1501 13.0372 10.9397 12.5284 10.9399 11.998C10.9402 11.4676 11.1512 10.959 11.5264 10.5841C11.9017 10.2092 12.4105 9.99873 12.9409 9.99899C13.4714 9.99926 13.98 10.2102 14.3549 10.5855C14.7297 10.9607 14.9402 11.4696 14.9399 12ZM14.9999 15.48H10.9999V28H14.9999V15.48ZM21.3199 15.48H17.3399V28H21.2799V21.43C21.2799 17.77 26.0499 17.43 26.0499 21.43V28H29.9999V20.07C29.9999 13.9 22.9399 14.13 21.2799 17.16L21.3199 15.48Z" fill="#272727"/>
</g>
</g>
</svg>
