<svg width="14" height="14" viewBox="0 0 14 14" fill="none" xmlns="http://www.w3.org/2000/svg">
<path d="M8.5 0.5C9.40625 0.5 10.2448 0.729167 11.0156 1.1875C11.776 1.625 12.375 2.22396 12.8125 2.98438C13.2708 3.75521 13.5 4.59375 13.5 5.5C13.5 6.40625 13.2708 7.24479 12.8125 8.01562C12.375 8.77604 11.776 9.375 11.0156 9.8125C10.2448 10.2708 9.40625 10.5 8.5 10.5C7.90625 10.5 7.33854 10.401 6.79688 10.2031C6.26562 10.0052 5.78125 9.72917 5.34375 9.375L1.35938 13.3594L0.640625 12.6406L4.625 8.65625C4.27083 8.21875 3.99479 7.73438 3.79688 7.20312C3.59896 6.66146 3.5 6.09375 3.5 5.5C3.5 4.59375 3.72917 3.75521 4.1875 2.98438C4.625 2.22396 5.22396 1.625 5.98438 1.1875C6.75521 0.729167 7.59375 0.5 8.5 0.5ZM8.5 1.5C7.77083 1.5 7.09896 1.68229 6.48438 2.04688C5.88021 2.40104 5.39583 2.88542 5.03125 3.5C4.67708 4.10417 4.5 4.77083 4.5 5.5C4.5 6.22917 4.67708 6.90104 5.03125 7.51562C5.39583 8.11979 5.88021 8.60417 6.48438 8.96875C7.09896 9.32292 7.77083 9.5 8.5 9.5C9.22917 9.5 9.89583 9.32292 10.5 8.96875C11.1146 8.60417 11.599 8.11979 11.9531 7.51562C12.3177 6.90104 12.5 6.22917 12.5 5.5C12.5 4.77083 12.3177 4.10417 11.9531 3.5C11.599 2.88542 11.1146 2.40104 10.5 2.04688C9.89583 1.68229 9.22917 1.5 8.5 1.5Z" fill="black"/>
</svg>
