<svg width="40" height="40" viewBox="0 0 40 40" fill="none" xmlns="http://www.w3.org/2000/svg">
<g id="Twitter">
<circle id="Ellipse 1256" cx="20" cy="20" r="19.5" fill="#FFFCF7" stroke="#272727"/>
<g id="Huge-icon/social/solid/twitter">
<g id="twitter">
<path id="Vector" d="M24.2858 12C22.182 12 20.4765 13.7909 20.4765 16C20.4765 16.3338 20.5154 16.6581 20.5888 16.9681C18.5659 16.9681 15.5189 16.5591 12.9742 14.0096C12.6358 13.6706 12.0118 13.8973 12.0353 14.3757C12.4124 22.0627 15.7045 24.3049 17.3999 24.4444C16.3051 25.5257 14.7149 26.3791 13.1146 26.7622C12.6923 26.8633 12.588 27.3256 13.001 27.4599C14.146 27.8323 15.7849 27.9758 16.6671 28C22.9079 28 27.9804 22.7471 28.0933 16.2223C28.9126 15.6894 29.4375 14.5325 29.7324 13.7129C29.8042 13.5133 29.4771 13.2807 29.2812 13.3623C28.6691 13.6171 27.8921 13.6775 27.2302 13.4618C26.5315 12.5693 25.472 12 24.2858 12Z" fill="#272727"/>
</g>
</g>
</g>
</svg>
