<svg width="40" height="28" viewBox="0 0 40 28" fill="none" xmlns="http://www.w3.org/2000/svg">
<g id="Group">
<g id="Clip path group">
<mask id="mask0_4499_1712" style="mask-type:luminance" maskUnits="userSpaceOnUse" x="0" y="0" width="40" height="28">
<g id="flagpackGbUkm3">
<path id="Vector" d="M0 0H40V28H0V0Z" fill="white"/>
</g>
</mask>
<g mask="url(#mask0_4499_1712)">
<g id="Group_2">
<path id="Vector_2" d="M0 0H40V28H0V0Z" fill="white"/>
<path id="Vector_3" fill-rule="evenodd" clip-rule="evenodd" d="M0 0V28H40V0H0Z" fill="black"/>
<g id="Mask group">
<mask id="mask1_4499_1712" style="mask-type:luminance" maskUnits="userSpaceOnUse" x="0" y="0" width="40" height="28">
<g id="Group_3">
<path id="Vector_4" fill-rule="evenodd" clip-rule="evenodd" d="M0 0V28H40V0H0Z" fill="white"/>
</g>
</mask>
<g mask="url(#mask1_4499_1712)">
<g id="Group_4">
<path id="Vector_5" d="M-4.45361 25.9991L4.34889 29.4746L40.1989 3.77762L44.8426 -1.38604L35.4301 -2.54688L20.8076 8.52596L9.03764 15.988L-4.45361 25.9991Z" fill="white"/>
<path id="Vector_6" d="M-3.25 28.4338L1.23625 30.4498L43.175 -1.86572H36.8787L-3.24875 28.4326L-3.25 28.4338Z" fill="#272727"/>
<path id="Vector_7" d="M44.4535 25.9991L35.651 29.4746L-0.199023 3.77762L-4.84277 -1.38604L4.56973 -2.54688L19.1922 8.52596L30.9622 15.988L44.4535 25.9991Z" fill="white"/>
<path id="Vector_8" d="M44.1537 27.7467L39.6687 29.7627L21.8112 15.926L16.5162 14.3813L-5.29004 -1.36865H1.00746L22.8 14.008L28.5887 15.8607L44.1537 27.7467Z" fill="#272727"/>
<path id="Vector_9" fill-rule="evenodd" clip-rule="evenodd" d="M24.7227 -2.3335H15.2777V9.33317H-2.46484V18.6665H15.2777V30.3332H24.7227V18.6665H42.5352V9.33317H24.7227V-2.3335Z" fill="#272727"/>
<g id="Mask group_2">
<mask id="mask2_4499_1712" style="mask-type:luminance" maskUnits="userSpaceOnUse" x="-3" y="-3" width="46" height="34">
<g id="Group_5">
<path id="Vector_10" fill-rule="evenodd" clip-rule="evenodd" d="M24.7227 -2.3335H15.2777V9.33317H-2.46484V18.6665H15.2777V30.3332H24.7227V18.6665H42.5352V9.33317H24.7227V-2.3335Z" fill="white"/>
</g>
</mask>
<g mask="url(#mask2_4499_1712)">
<path id="Vector_11" d="M15.2777 -2.33366V-4.66699H12.7777V-2.33366H15.2777ZM24.7227 -2.33366H27.2227V-4.66699H24.7227V-2.33366ZM15.2777 9.33301V11.6663H17.7777V9.33301H15.2777ZM-2.46484 9.33301V6.99968H-4.96484V9.33301H-2.46484ZM-2.46484 18.6663H-4.96484V20.9997H-2.46484V18.6663ZM15.2777 18.6663H17.7777V16.333H15.2777V18.6663ZM15.2777 30.333H12.7777V32.6663H15.2777V30.333ZM24.7227 30.333V32.6663H27.2227V30.333H24.7227ZM24.7227 18.6663V16.333H22.2227V18.6663H24.7227ZM42.5352 18.6663V20.9997H45.0352V18.6663H42.5352ZM42.5352 9.33301H45.0352V6.99968H42.5352V9.33301ZM24.7227 9.33301H22.2227V11.6663H24.7227V9.33301ZM15.2777 -0.000325203H24.7227V-4.66699H15.2777V-0.000325203ZM17.7777 9.33301V-2.33366H12.7777V9.33301H17.7777ZM-2.46484 11.6663H15.2777V6.99968H-2.46484V11.6663ZM0.0351562 18.6663V9.33301H-4.96484V18.6663H0.0351562ZM15.2777 16.333H-2.46484V20.9997H15.2777V16.333ZM17.7777 30.333V18.6663H12.7777V30.333H17.7777ZM24.7227 27.9997H15.2777V32.6663H24.7227V27.9997ZM22.2227 18.6663V30.333H27.2227V18.6663H22.2227ZM42.5352 16.333H24.7227V20.9997H42.5352V16.333ZM40.0352 9.33301V18.6663H45.0352V9.33301H40.0352ZM24.7227 11.6663H42.5352V6.99968H24.7227V11.6663ZM22.2227 -2.33366V9.33301H27.2227V-2.33366H22.2227Z" fill="white"/>
</g>
</g>
</g>
</g>
</g>
</g>
</g>
</g>
</g>
</svg>
