<svg width="36" height="36" viewBox="0 0 36 36" fill="none" xmlns="http://www.w3.org/2000/svg">
<g id="Huge-icon/user/outline/user-circle">
<path id="Vector" d="M27.8383 29.3232C26.3481 25.3377 22.5054 22.5 18 22.5C13.4946 22.5 9.6519 25.3377 8.16175 29.3232M27.8383 29.3232C31.0007 26.5732 33 22.5201 33 18C33 9.71573 26.2843 3 18 3C9.71573 3 3 9.71573 3 18C3 22.5201 4.99927 26.5731 8.16175 29.3232M27.8383 29.3232C25.2046 31.6135 21.7642 33 18 33C14.2358 33 10.7954 31.6135 8.16175 29.3232" stroke="#FFFCF7" stroke-linejoin="round"/>
<circle id="Ellipse 321" cx="4.5" cy="4.5" r="4.5" transform="matrix(1 0 0 -1 13.5 18)" stroke="#FFFCF7" stroke-linejoin="round"/>
</g>
</svg>
