<svg width="40" height="40" viewBox="0 0 40 40" fill="none" xmlns="http://www.w3.org/2000/svg">
<g id="VN square flag" clip-path="url(#clip0_4499_1733)">
<path id="Vector" d="M4.44444 6.05566H35.5556C36.6017 6.05566 37.605 6.47124 38.3447 7.21097C39.0844 7.95069 39.5 8.95398 39.5 10.0001V30.0001C39.5 31.0462 39.0844 32.0495 38.3447 32.7893C37.605 33.529 36.6017 33.9446 35.5556 33.9446H4.44444C3.39831 33.9446 2.39503 33.529 1.6553 32.7893C0.915574 32.0495 0.5 31.0462 0.5 30.0001V10.0001C0.5 8.95398 0.915574 7.95069 1.6553 7.21096C2.39503 6.47124 3.39831 6.05566 4.44444 6.05566Z" stroke="white"/>
<path id="Vector_2" d="M21.6527 18.348L20 13L18.3473 18.348H13L17.3263 21.652L15.6737 27L20 23.695L24.3263 27L22.6737 21.652L27 18.348H21.6527Z" fill="white"/>
</g>
<defs>
<clipPath id="clip0_4499_1733">
<rect width="40" height="40" fill="white"/>
</clipPath>
</defs>
</svg>
