<svg width="946" height="507" viewBox="0 0 946 507" fill="none" xmlns="http://www.w3.org/2000/svg">
<g clip-path="url(#clip0_4246_66477)">
<path d="M534.724 20.7549H428.724V92.7549H534.724V20.7549Z" fill="#CAD1D8"/>
<path d="M900.962 470.408C900.183 485.696 900.897 497.146 901.742 506.298H725.948C718.5 482.053 712.416 449.481 704.556 406.434C704.556 406.434 680.782 276.579 702.781 216.877C705.898 208.442 709.904 201.415 715.036 196.341C724.649 186.821 736.016 182.961 736.016 182.961C754.421 176.715 771.699 183.047 779.884 185.823C811.214 196.493 844.732 199.073 877.123 205.883C921.662 215.273 926.967 214.557 934.328 222.125C943.465 231.494 950.308 247.997 941.019 307.113C927.096 395.526 904.189 406.955 900.962 470.408Z" fill="#545454"/>
<path d="M606.562 259.115C590.946 246.31 567.912 248.563 555.094 264.163L456.93 383.593L385.877 400.775C366.249 405.52 354.19 425.259 358.94 444.868C363.69 464.476 383.448 476.523 403.077 471.778L485.473 451.844C492.955 450.024 499.332 446.016 504.103 440.686C505.318 439.559 506.511 438.367 507.574 437.046L611.594 310.509C624.412 294.909 622.156 271.899 606.54 259.093L606.562 259.115Z" fill="#FABE9D"/>
<path d="M627.636 336.79C611.123 355.567 593.026 374.844 573.237 394.338C570.85 396.707 568.42 399.054 565.99 401.423C553.513 413.484 541.145 424.872 528.972 435.63C524.806 430.936 520.661 426.241 516.495 421.547C498.116 400.792 479.737 380.06 461.358 359.305C474.052 341.484 490.435 321.164 511.287 300.453C531.727 280.133 551.734 264.094 569.331 251.642C588.773 280.024 608.215 308.407 627.636 336.79Z" fill="#CE5C55"/>
<path d="M573.237 394.338C570.85 396.707 568.42 399.054 565.99 401.423C553.513 413.484 541.145 424.872 528.972 435.63C528.581 435.173 525.956 432.218 525.565 431.783C524.871 431.001 521.659 427.371 520.943 426.567C528.386 421.634 536.132 416.092 544.074 409.855C557.549 399.249 569.071 388.535 578.836 378.451C576.97 383.754 575.103 389.035 573.237 394.338Z" fill="#9C0B0B"/>
<path d="M696.463 46.2605C698.329 43.7099 699.722 41.7915 701.408 41.9441C711.994 42.8597 721.457 124.72 702.892 131.457C696.531 133.767 686.529 127.358 682.843 119.946C677.403 108.937 689.518 103.29 691.002 79.6152C691.811 66.6439 688.911 56.5285 696.441 46.2605H696.463Z" fill="#231F20"/>
<path d="M697.167 156.661C706.004 156.661 713.167 147.259 713.167 135.661C713.167 124.063 706.004 114.661 697.167 114.661C688.33 114.661 681.167 124.063 681.167 135.661C681.167 147.259 688.33 156.661 697.167 156.661Z" fill="#FABE9D"/>
<path d="M789.959 501.383C789.504 503.053 789.071 504.7 788.659 506.305H605.641C602.15 495.313 597.251 481.285 589.858 462.814C569.848 412.797 564.818 413.621 556.168 383.268C547.453 352.764 533.101 302.487 554.629 267.798C563.322 253.793 575.441 248.221 599.028 236.709C643.818 214.876 684.619 216.025 694.245 216.481C697.431 216.632 700.77 216.784 704.217 216.958C732.986 218.584 769.364 222.898 788.832 248.373C804.029 268.297 794.447 282.216 793.515 357.794C792.583 432.439 803.206 451.583 789.959 501.383Z" fill="#CE5C55"/>
<path d="M678.823 469.045C655.276 468.848 638.709 461.897 615.988 452.381C611.248 450.386 602.791 446.681 594.637 438.677C592.659 436.726 578.33 422.671 582.244 415.458C584.984 410.393 596.116 409.779 604.139 413.287C613.879 417.541 612.488 425.017 621.728 432.121C626.903 436.112 630.49 436.178 661.234 439.73C685.107 442.493 688.346 443.085 691.39 443.72C696.826 444.861 726.765 451.088 726.569 457.6C726.395 463.586 700.783 469.265 678.823 469.067V469.045Z" fill="#9B2922"/>
<path d="M726.3 379.712C730.488 405.53 734.654 431.349 738.842 457.167L774.666 450.995C775.057 449.126 781.632 414.571 757.655 393.164C745.915 382.689 732.441 380.342 726.3 379.712Z" fill="#9C0B0B"/>
<path d="M678.305 469.906H678.283C666.889 469.644 637.832 466.588 614.006 444.019C602.98 433.564 594.483 420.205 589.446 405.363C589.251 404.795 589.554 404.162 590.116 403.966C590.678 403.769 591.305 404.075 591.5 404.642C596.429 419.136 604.731 432.21 615.498 442.404C638.783 464.471 667.192 467.44 678.327 467.702C678.932 467.702 679.408 468.226 679.386 468.815C679.386 469.404 678.889 469.884 678.305 469.884V469.906Z" fill="#231F20"/>
<path d="M618.066 126.896H693.066V235.689C693.066 256.237 676.259 272.896 655.577 272.896C634.873 272.896 618.088 256.216 618.088 235.689V126.896H618.066Z" fill="#FABE9D"/>
<path d="M695.264 117.927C696.061 136.858 697.031 159.841 681.02 181.015C661.454 206.896 631.545 210.207 626.934 210.643C618.379 211.449 595.732 213.584 579.484 199.162C561.922 183.586 562.957 158.512 564.293 125.551C565.499 96.2724 566.34 76.9928 581.381 61.5038C597.887 44.4899 620.685 43.5967 626.934 43.3353C633.183 43.0956 658.395 42.0935 677.228 60.5453C693.605 76.6225 694.423 97.9716 695.264 117.905V117.927Z" fill="#FABE9D"/>
<path d="M629.879 132.552C632.088 132.552 633.879 128.97 633.879 124.552C633.879 120.133 632.088 116.552 629.879 116.552C627.67 116.552 625.879 120.133 625.879 124.552C625.879 128.97 627.67 132.552 629.879 132.552Z" fill="#231F20"/>
<path d="M586.98 132.552C589.19 132.552 590.98 128.97 590.98 124.552C590.98 120.133 589.19 116.552 586.98 116.552C584.771 116.552 582.98 120.133 582.98 124.552C582.98 128.97 584.771 132.552 586.98 132.552Z" fill="#231F20"/>
<path d="M646.333 109.502C646.047 109.502 645.739 109.379 645.541 109.109C644.266 107.609 641.541 104.955 637.452 104.193C631.01 103.014 626.196 107.462 625.295 108.347C624.833 108.789 624.152 108.765 623.734 108.249C623.316 107.732 623.36 106.97 623.822 106.504C624.855 105.471 630.373 100.359 637.803 101.736C642.53 102.596 645.673 105.643 647.146 107.388C647.564 107.88 647.542 108.666 647.102 109.133C646.882 109.354 646.619 109.477 646.355 109.477L646.333 109.502Z" fill="#231F20"/>
<path d="M600.332 109.502C600.046 109.502 599.738 109.379 599.541 109.109C598.266 107.609 595.54 104.955 591.451 104.193C585.009 103.014 580.195 107.462 579.294 108.347C578.832 108.789 578.151 108.765 577.733 108.249C577.315 107.732 577.359 106.97 577.821 106.504C578.854 105.471 584.372 100.359 591.802 101.736C596.529 102.596 599.672 105.643 601.145 107.388C601.563 107.88 601.541 108.666 601.101 109.133C600.882 109.354 600.618 109.477 600.354 109.477L600.332 109.502Z" fill="#231F20"/>
<path d="M597.957 160.818C596.626 160.818 595.337 160.526 594.284 159.732C590.741 157.078 592.201 150.892 593.747 144.309C595.272 137.83 597.828 131.456 601.308 125.354C601.587 124.853 602.253 124.664 602.768 124.957C603.284 125.229 603.477 125.877 603.176 126.378C599.783 132.292 597.313 138.499 595.831 144.769C594.499 150.411 593.125 156.221 595.573 158.06C597.957 159.857 603.026 157.516 604.53 156.743C605.067 156.472 605.711 156.681 605.969 157.182C606.248 157.705 606.033 158.331 605.518 158.582C603.606 159.544 600.642 160.777 597.936 160.777L597.957 160.818Z" fill="#231F20"/>
<path d="M609.716 179.183C608.787 179.183 607.962 179.081 607.282 178.93C606.725 178.803 606.354 178.145 606.436 177.462C606.539 176.779 607.076 176.324 607.632 176.425C609.241 176.754 611.716 176.881 614.377 175.464C615.985 174.604 617.45 173.288 618.605 171.619C618.976 171.088 619.636 171.037 620.069 171.492C620.502 171.948 620.544 172.757 620.172 173.288C618.811 175.236 617.099 176.805 615.202 177.791C613.222 178.854 611.324 179.183 609.736 179.183H609.716Z" fill="#231F20"/>
<path d="M696.566 118.362C689.974 131.895 677.877 147.527 672.373 145.341C670.763 144.707 670.524 142.87 668.544 128.965C665.737 109.266 665.106 106.687 664.236 102.97C662.996 97.6353 660.755 88.0154 653.467 82.0249C646.548 76.3405 638.216 76.4716 621.855 76.9745C605.407 77.4774 602.426 80.1228 587.371 79.8604C574.034 79.6199 567.355 79.5106 561.503 74.81C552.43 67.5296 549.319 52.8375 553.605 41.5998C558.174 29.6187 569.835 24.9619 578.755 21.3763C597.14 14.0084 623.138 12.7184 643.415 22.8193C648.485 25.3335 656.317 30.1216 668.566 33.6416C674.505 35.3469 678.835 36.5931 685.101 37.249C695.826 38.364 696.109 37.402 698.764 38.692C711.709 44.9667 708.467 80.888 702.353 102.948C701.092 107.496 699.395 112.612 696.61 118.318L696.566 118.362Z" fill="#231F20"/>
<path d="M810.543 506.779H505.291C506.396 505.086 508.108 503.761 510.166 503.196L531.787 497.116C533.737 496.573 534.711 494.38 533.802 492.556C533.78 492.534 533.78 492.513 533.758 492.491C533.065 491.101 531.505 490.385 529.989 490.797L521.539 493.164L501.695 506.714C501.695 506.714 501.63 506.758 501.586 506.779H493.029C492.054 506.171 491.231 505.324 490.581 504.26C488.371 500.634 489.736 495.857 493.246 493.446L493.744 493.099C491.274 492.73 488.956 491.21 487.765 488.626C486.14 485.108 487.526 480.874 490.754 478.68L496.972 474.446C495.347 473.621 494.004 472.253 493.267 470.451C491.599 466.303 494.047 461.504 498.228 459.962L521.085 451.494C521.604 451.298 522.146 451.168 522.666 451.081C523.229 450.951 523.814 450.842 524.421 450.821C533.628 450.994 542.836 451.168 552.043 451.342C554.578 450.951 557.199 450.973 559.864 451.494L599.38 459.463C608.327 460.853 618.206 461.982 628.887 462.546L750.663 444.198L726.182 280.838C725.9 278.992 725.77 277.168 725.77 275.366C725.77 257.538 738.769 241.925 756.881 239.189C776.812 236.192 795.422 249.959 798.411 269.959L827.637 464.805C828.048 466.325 828.438 467.867 828.677 469.473C830.973 484.913 823.325 499.527 810.543 506.779Z" fill="#FABE9D"/>
<path d="M827.792 393.126C791.486 399.546 755.158 405.944 718.852 412.364C713.016 383.843 710.24 358.771 708.928 338.557C706.742 304.744 708.229 278.284 709.103 263.557C709.584 255.641 710.109 249.004 710.546 244.211C730.699 240.936 750.852 237.639 771.005 234.364C775.245 236.425 781.584 240.003 787.967 245.816C804.251 260.673 809.366 279.737 817.147 324.199C820.776 344.869 824.426 367.946 827.792 393.126Z" fill="#CE5C55"/>
<path d="M718.64 409.921C718.163 409.921 717.707 409.595 717.599 409.095C716.384 404.118 715.255 399.033 714.236 393.969C709.527 370.302 707.314 345.875 707.617 321.404C707.617 320.817 708.116 320.339 708.702 320.339C709.31 320.339 709.787 320.839 709.766 321.447C709.462 345.766 711.675 370.041 716.34 393.556C717.338 398.576 718.467 403.64 719.682 408.573C719.834 409.16 719.465 409.747 718.879 409.877C718.792 409.899 718.705 409.899 718.619 409.899L718.64 409.921Z" fill="#231F20"/>
<path d="M720.311 413.267C719.747 413.267 719.27 412.811 719.226 412.246C719.183 411.637 719.639 411.137 720.246 411.094C723.479 410.898 726.734 410.594 729.967 410.137C733.851 409.616 737.757 408.899 741.576 408.008C742.162 407.877 742.748 408.247 742.878 408.812C743.008 409.399 742.639 409.985 742.075 410.116C738.191 411.007 734.22 411.746 730.271 412.289C726.995 412.745 723.675 413.05 720.398 413.245C720.398 413.245 720.355 413.245 720.333 413.245L720.311 413.267Z" fill="#231F20"/>
<path d="M620.001 211.277C619.414 211.277 618.913 210.779 618.913 210.168C618.913 209.534 619.392 209.035 619.979 209.013C625.399 208.922 630.731 207.903 635.802 205.956C641.852 203.646 647.336 200.181 652.081 195.584C652.516 195.154 653.213 195.176 653.626 195.652C654.04 196.105 653.996 196.829 653.561 197.26C648.577 202.038 642.853 205.684 636.542 208.084C631.253 210.1 625.682 211.164 620.023 211.277H620.001Z" fill="#231F20"/>
<path d="M557.592 394.469C557.115 394.469 556.659 394.143 556.551 393.643C552.471 377.8 550.627 361.5 551.061 345.157C551.473 329.749 553.882 314.449 558.265 299.649C558.439 299.084 559.046 298.736 559.61 298.91C560.196 299.084 560.522 299.693 560.348 300.258C556.008 314.862 553.622 329.988 553.231 345.201C552.819 361.326 554.641 377.43 558.656 393.078C558.807 393.664 558.46 394.251 557.874 394.403C557.788 394.425 557.701 394.447 557.614 394.447L557.592 394.469Z" fill="#231F20"/>
<path d="M471 495H267.811L233 363H436.168L471 495Z" fill="#CE5C55"/>
<path d="M513 493H268V507H513V493Z" fill="#C2332A"/>
<path d="M500.308 487.919C499.896 487.919 499.483 487.68 499.31 487.267C499.071 486.724 499.31 486.072 499.874 485.833C506.058 483.203 521.117 476.792 527.627 474.336C528.104 474.162 529.08 473.793 530.469 473.554C534.31 472.924 538.324 473.858 542.425 476.336C542.946 476.64 543.098 477.314 542.794 477.835C542.49 478.357 541.818 478.509 541.297 478.205C537.652 476.01 534.115 475.162 530.795 475.705C529.623 475.901 528.777 476.205 528.364 476.357C521.898 478.791 506.861 485.181 500.699 487.832C500.568 487.897 500.416 487.919 500.265 487.919H500.308Z" fill="#231F20"/>
<path d="M499.353 473.076C498.919 473.076 498.507 472.815 498.333 472.358C498.116 471.793 498.42 471.163 498.984 470.968C499.787 470.663 518.708 463.687 526.129 462.079C527.127 461.862 528.69 461.579 530.664 461.579C533.463 461.579 536.262 462.188 538.975 463.339C539.517 463.578 539.778 464.209 539.539 464.774C539.3 465.339 538.671 465.578 538.107 465.339C535.655 464.296 533.16 463.752 530.642 463.752C528.95 463.818 527.561 463.991 526.585 464.209C519.316 465.795 499.939 472.945 499.743 473.01C499.613 473.054 499.483 473.076 499.375 473.076H499.353Z" fill="#231F20"/>
<path d="M347.159 441.129C353.618 441.129 358.854 435.884 358.854 429.415C358.854 422.946 353.618 417.701 347.159 417.701C340.699 417.701 335.463 422.946 335.463 429.415C335.463 435.884 340.699 441.129 347.159 441.129Z" fill="white"/>
<path d="M166.08 434.791C161.634 424.324 148.036 427.093 136.347 416.779C127.52 408.972 125.2 398.483 124.181 393.729C122.706 387.013 120.993 372.119 127.412 368.521C132.942 365.403 140.814 372.839 143.525 369.96C146.019 367.322 139.47 360.976 139.947 350.509C140.077 347.718 140.966 339.191 147.472 333.936C155.345 327.59 168.552 328.419 174.342 334.656C178.962 339.627 175.665 344.621 179.721 359.864C180.089 361.259 184.47 377.462 188.309 377.156C192.473 376.807 190.369 357.618 199.044 354.107C204.205 352.035 211.384 356.222 215.157 360.954C217.412 363.789 220.796 369.764 217.304 389.76C213.682 410.52 211.015 425.828 197.959 435.859C188.504 443.121 173.822 447.438 168.595 442.336C166.513 440.329 167.706 438.541 166.08 434.769V434.791Z" fill="#DB6E6E"/>
<path d="M167.167 451.576C166.275 448.19 177.087 445.607 180.372 435.513C181.525 431.996 180.677 430.802 180.699 424.572C180.699 422.25 180.96 398.458 189.313 395.658C194.491 393.921 198.994 401.519 202.975 399.479C207.718 397.047 202.431 385.673 208.718 378.205C212.525 373.69 219.987 371.259 225.013 373.43C235.411 377.923 233.606 401.432 231.474 412.134C229.32 422.944 224.882 430.325 222.859 433.407C219.878 437.922 215.658 444.348 207.413 449.058C199.429 453.617 192.141 454.051 185.506 454.442C183.026 454.593 168.212 455.44 167.189 451.576H167.167Z" fill="#F3CFCF"/>
<path d="M180.385 452.499C174.088 460.032 152.123 450.806 141.464 446.356C132.115 442.427 124.356 439.084 116.727 431.377C107.55 422.087 98.9965 406.935 102.994 402.224C106.669 397.904 122.143 401.551 132.803 408.432C138.541 412.144 142.603 416.616 145.569 415.118C149.136 413.338 146.45 405.524 150.297 403.179C155.326 400.097 166.286 410.755 166.867 411.298C173.937 418.266 176.559 426.168 178.214 431.356C181.373 441.276 183.694 448.505 180.342 452.499H180.385Z" fill="#E79F9F"/>
<path d="M213.845 446.388H141.845V461.388H213.845V446.388Z" fill="#545454"/>
<path d="M203.564 507.209C186.966 507.209 170.369 507.165 153.771 507.143C151.509 491.832 149.248 476.52 146.965 461.209H208.965C207.165 476.542 205.364 491.876 203.564 507.187V507.209Z" fill="#A9A9A9"/>
<path d="M159.173 442.883C158.955 442.883 158.758 442.818 158.562 442.709C156.336 441.234 154.022 439.802 151.665 438.457C146.448 435.485 142.716 433.902 139.092 432.362C136.189 431.125 133.417 429.954 130.274 428.196C125.385 425.441 120.78 421.927 116.589 417.74C116.152 417.306 116.174 416.634 116.589 416.2C117.025 415.766 117.702 415.788 118.139 416.2C122.198 420.257 126.651 423.641 131.366 426.288C134.421 428.001 137.106 429.151 139.965 430.366C143.458 431.841 147.43 433.533 152.756 436.57C155.157 437.937 157.514 439.39 159.784 440.909C160.286 441.234 160.417 441.907 160.09 442.406C159.872 442.709 159.544 442.883 159.173 442.883Z" fill="#231F20"/>
<path d="M200.981 444.013C200.741 444.013 200.5 443.947 200.303 443.772C199.823 443.399 199.735 442.719 200.129 442.237C205.089 435.879 209.154 428.908 212.257 421.498C214.749 415.535 216.585 409.287 217.721 402.908C217.83 402.316 218.377 401.921 218.988 402.031C219.579 402.141 219.972 402.711 219.863 403.302C218.683 409.835 216.803 416.237 214.268 422.353C211.099 429.96 206.925 437.107 201.855 443.596C201.636 443.881 201.309 444.013 201.003 444.013H200.981Z" fill="#231F20"/>
<path d="M176.38 414.331C175.95 414.331 175.541 414.074 175.369 413.623C173.647 409.012 171.603 403.521 169.322 397.322C165.019 385.589 163.943 382.436 163.233 378.36C162.179 372.247 162.179 365.813 163.233 359.228C163.319 358.649 163.857 358.241 164.46 358.348C165.041 358.434 165.449 358.992 165.342 359.571C164.33 365.898 164.309 372.097 165.342 377.996C165.987 381.685 166.826 384.28 171.324 396.592C173.604 402.791 175.648 408.282 177.37 412.872C177.585 413.43 177.305 414.052 176.746 414.245C176.617 414.288 176.488 414.31 176.38 414.31V414.331Z" fill="#231F20"/>
<path d="M201.502 462.448H153.668C153.062 462.448 152.585 462.008 152.585 461.448C152.585 460.888 153.062 460.448 153.668 460.448H201.502C202.108 460.448 202.585 460.888 202.585 461.448C202.585 462.008 202.108 462.448 201.502 462.448Z" fill="#231F20"/>
<path d="M398.265 50.8105H208.265V170.811H398.265V50.8105Z" fill="#CAD1D8"/>
<path d="M534.34 112.857H296.34V246.857H534.34V112.857Z" fill="#E6E7E8"/>
<path d="M357.29 125.919H311.29V233.919H357.29V125.919Z" fill="#CAD1D8"/>
<path d="M372.307 125.954V153.954H518.307V125.954L372.307 125.954Z" fill="#CAD1D8"/>
<path d="M312.217 136.572C316.635 136.572 320.217 132.991 320.217 128.572C320.217 124.154 316.635 120.572 312.217 120.572C307.799 120.572 304.217 124.154 304.217 128.572C304.217 132.991 307.799 136.572 312.217 136.572Z" fill="#4E0606"/>
<path d="M520.546 136.572C524.964 136.572 528.546 132.991 528.546 128.572C528.546 124.154 524.964 120.572 520.546 120.572C516.128 120.572 512.546 124.154 512.546 128.572C512.546 132.991 516.128 136.572 520.546 136.572Z" fill="#4E0606"/>
<path d="M380.444 153.954H379.444V233.954H380.444V153.954Z" fill="#BBC0C4"/>
<path d="M400.99 153.954H399.99V233.954H400.99V153.954Z" fill="#BBC0C4"/>
<path d="M421.534 153.954H420.534V233.954H421.534V153.954Z" fill="#BBC0C4"/>
<path d="M442.08 153.954H441.08V233.954H442.08V153.954Z" fill="#BBC0C4"/>
<path d="M462.625 153.954H461.625V233.954H462.625V153.954Z" fill="#BBC0C4"/>
<path d="M483.149 153.954H482.149V233.954H483.149V153.954Z" fill="#BBC0C4"/>
<path d="M503.694 153.954H502.694V233.954H503.694V153.954Z" fill="#BBC0C4"/>
<path d="M518.51 168.816H368.51V169.816H518.51V168.816Z" fill="#BBC0C4"/>
<path d="M518.51 194.108H368.51V195.108H518.51V194.108Z" fill="#BBC0C4"/>
<path d="M518.51 219.4H368.51V220.4H518.51V219.4Z" fill="#BBC0C4"/>
<path d="M910.494 0H785.494V160H910.494V0Z" fill="#E6E7E8"/>
<path d="M885.533 90.4189H810.533V142.419H885.533V90.4189Z" fill="#CAD1D8"/>
<path d="M894.496 34.0039H800.681C800.07 34.0039 799.589 33.5639 799.589 33.0039C799.589 32.4439 800.07 32.0039 800.681 32.0039H894.496C895.108 32.0039 895.589 32.4439 895.589 33.0039C895.589 33.5639 895.108 34.0039 894.496 34.0039Z" fill="#231F20"/>
<path d="M894.496 54.8203H800.681C800.07 54.8203 799.589 54.3803 799.589 53.8203C799.589 53.2603 800.07 52.8203 800.681 52.8203H894.496C895.108 52.8203 895.589 53.2603 895.589 53.8203C895.589 54.3803 895.108 54.8203 894.496 54.8203Z" fill="#231F20"/>
<path d="M894.496 75.6357H800.681C800.07 75.6357 799.589 75.1957 799.589 74.6357C799.589 74.0757 800.07 73.6357 800.681 73.6357H894.496C895.108 73.6357 895.589 74.0757 895.589 74.6357C895.589 75.1957 895.108 75.6357 894.496 75.6357Z" fill="#231F20"/>
<path d="M802.258 23.1338C806.676 23.1338 810.258 19.5521 810.258 15.1338C810.258 10.7155 806.676 7.13379 802.258 7.13379C797.84 7.13379 794.258 10.7155 794.258 15.1338C794.258 19.5521 797.84 23.1338 802.258 23.1338Z" fill="#4E0606"/>
<path d="M893.541 23.1338C897.959 23.1338 901.541 19.5521 901.541 15.1338C901.541 10.7155 897.959 7.13379 893.541 7.13379C889.123 7.13379 885.541 10.7155 885.541 15.1338C885.541 19.5521 889.123 23.1338 893.541 23.1338Z" fill="#4E0606"/>
<path d="M869.404 496.525C868.796 496.525 868.319 496.025 868.341 495.416C868.861 464.86 871.053 434.152 874.807 404.139C878.626 373.54 882.966 338.876 896.354 296.28C903.384 273.918 912.085 251.881 922.219 230.822C922.479 230.278 923.13 230.061 923.672 230.322C924.215 230.583 924.432 231.235 924.171 231.778C914.082 252.75 905.424 274.678 898.437 296.954C885.114 339.354 880.796 373.931 876.977 404.422C873.223 434.348 871.053 464.991 870.532 495.46C870.532 496.047 870.033 496.525 869.447 496.525H869.404Z" fill="#231F20"/>
<path d="M48.9034 481.038C48.4091 481.038 47.9578 480.691 47.8504 480.193L15.2071 329.48C15.1427 329.133 15.2071 328.786 15.4435 328.526L128.287 198.412C128.674 197.957 129.362 197.913 129.813 198.304C130.264 198.694 130.307 199.388 129.921 199.843L17.4206 329.545L49.9564 479.715C50.0853 480.301 49.72 480.886 49.1398 481.016C49.0538 481.016 48.9893 481.038 48.9034 481.038Z" fill="#231F20"/>
<path d="M202.331 214.052C202.331 214.052 202.156 214.052 202.09 214.03L144.282 200.275C143.691 200.141 143.319 199.538 143.472 198.936C143.603 198.333 144.194 197.953 144.785 198.109L202.593 211.864C203.184 211.998 203.556 212.601 203.403 213.203C203.294 213.717 202.834 214.074 202.331 214.074V214.052Z" fill="#231F20"/>
<path d="M61.6739 484.769C61.1796 484.769 60.7283 484.422 60.6209 483.923L27.9776 333.211C27.9132 332.864 27.9776 332.517 28.214 332.257L141.058 202.142C141.445 201.687 142.132 201.644 142.584 202.034C143.035 202.424 143.078 203.118 142.691 203.573L30.1911 333.276L62.7269 483.446C62.8558 484.031 62.4905 484.617 61.9103 484.747C61.8243 484.747 61.7598 484.769 61.6739 484.769Z" fill="#231F20"/>
<path d="M22.7793 349.14C30.5113 349.14 36.7793 342.872 36.7793 335.14C36.7793 327.408 30.5113 321.14 22.7793 321.14C15.0473 321.14 8.7793 327.408 8.7793 335.14C8.7793 342.872 15.0473 349.14 22.7793 349.14Z" fill="#545454"/>
<path d="M115 506.864H0C0 483.655 25.755 464.864 57.5 464.864C89.245 464.864 115 483.655 115 506.864Z" fill="#A9A9A9"/>
<path d="M137 214C144.732 214 151 207.732 151 200C151 192.268 144.732 186 137 186C129.268 186 123 192.268 123 200C123 207.732 129.268 214 137 214Z" fill="#545454"/>
<path d="M282.301 239.431L218.472 197.24L200.397 215.319L182.301 233.419L224.483 297.24L282.301 239.431Z" fill="#A9A9A9"/>
<path d="M198.67 204.754L189.777 213.694L198.67 222.634L207.562 213.694L198.67 204.754Z" fill="#545454"/>
<path d="M376.992 217.633C376.711 217.633 376.429 217.524 376.212 217.305C375.8 216.869 375.8 216.192 376.212 215.756L396.607 195.762C397.019 195.348 397.691 195.348 398.102 195.762L412.363 209.557L439.52 181.444C439.737 181.226 440.04 181.095 440.344 181.116C440.647 181.116 440.929 181.269 441.146 181.509L454.323 197.705L488.025 161.974C488.437 161.538 489.131 161.516 489.564 161.931C489.998 162.345 490.019 163.044 489.608 163.48L455.06 200.106C454.843 200.324 454.583 200.477 454.237 200.455C453.933 200.455 453.63 200.302 453.435 200.062L440.235 183.845L413.165 211.849C412.754 212.285 412.06 212.285 411.648 211.871L397.365 198.054L377.708 217.327C377.491 217.524 377.231 217.633 376.949 217.633H376.992Z" fill="#231F20"/>
<path d="M365.363 233.3H517.363V159.3" stroke="#231F20" stroke-linecap="round" stroke-linejoin="round"/>
<g style="mix-blend-mode:soft-light">
<path d="M281.552 363L233 287.549L274.471 247L409 363H281.552Z" fill="#FFF1E5"/>
</g>
</g>
<defs>
<clipPath id="clip0_4246_66477">
<rect width="946" height="507" fill="white"/>
</clipPath>
</defs>
</svg>
